<svg width="1980" height="1024" viewBox="0 0 1980 1024" fill="none" xmlns="http://www.w3.org/2000/svg">
<g clip-path="url(#clip0_2131_5006)">
<path d="M1980 0H0V1024H1980V0Z" fill="#2D6A4F"/>
<g filter="url(#filter0_f_2131_5006)">
<path d="M1449.94 703.526C1863.43 703.526 2198.62 395.339 2198.62 15.1703C2198.62 -364.998 1863.43 -673.185 1449.94 -673.185C1036.45 -673.185 701.25 -364.998 701.25 15.1703C701.25 395.339 1036.45 703.526 1449.94 703.526Z" fill="#1C1C1C"/>
<path d="M309.375 1649.78C722.864 1649.78 1058.06 1341.59 1058.06 961.422C1058.06 581.254 722.864 273.067 309.375 273.067C-104.114 273.067 -439.312 581.254 -439.312 961.422C-439.312 1341.59 -104.114 1649.78 309.375 1649.78Z" fill="#2D6A4F"/>
<path d="M53.625 1149.16C467.114 1149.16 802.312 840.968 802.312 460.8C802.312 80.6317 467.114 -227.556 53.625 -227.556C-359.864 -227.556 -695.062 80.6317 -695.062 460.8C-695.062 840.968 -359.864 1149.16 53.625 1149.16Z" fill="#1C1C1C"/>
<path d="M1256.06 1010.73C1669.55 1010.73 2004.75 702.539 2004.75 322.37C2004.75 -57.798 1669.55 -365.985 1256.06 -365.985C842.574 -365.985 507.375 -57.798 507.375 322.37C507.375 702.539 842.574 1010.73 1256.06 1010.73Z" fill="#1C1C1C"/>
<path d="M307.312 802.133C720.801 802.133 1056 493.946 1056 113.778C1056 -266.391 720.801 -574.578 307.312 -574.578C-106.176 -574.578 -441.375 -266.391 -441.375 113.778C-441.375 493.946 -106.176 802.133 307.312 802.133Z" fill="#2D6A4F"/>
<path d="M748.688 1078.99C1162.18 1078.99 1497.38 770.805 1497.38 390.637C1497.38 10.4688 1162.18 -297.719 748.688 -297.719C335.199 -297.719 0 10.4688 0 390.637C0 770.805 335.199 1078.99 748.688 1078.99Z" fill="#1C1C1C"/>
</g>
</g>
<defs>
<filter id="filter0_f_2131_5006" x="-1021.06" y="-999.185" width="3545.69" height="2974.96" filterUnits="userSpaceOnUse" color-interpolation-filters="sRGB">
<feFlood flood-opacity="0" result="BackgroundImageFix"/>
<feBlend mode="normal" in="SourceGraphic" in2="BackgroundImageFix" result="shape"/>
<feGaussianBlur stdDeviation="163" result="effect1_foregroundBlur_2131_5006"/>
</filter>
<clipPath id="clip0_2131_5006">
<rect width="1980" height="1024" fill="white"/>
</clipPath>
</defs>
</svg>
